<?xml version="1.0" encoding="UTF-8"?>
<svg width="32px" height="32px" viewBox="0 0 32 32" version="1.1" xmlns="http://www.w3.org/2000/svg" xmlns:xlink="http://www.w3.org/1999/xlink">
    <title>@1临时组件/icon/组织部门-线性@3x</title>
    <g id="@1临时组件/icon/组织部门-线性" stroke="none" stroke-width="1" fill="none" fill-rule="evenodd">
        <g id="各级政府-(2)">
            <rect id="矩形" x="0" y="0" width="32" height="32"></rect>
            <path d="M16.0139764,4.00085392 C16.3345168,3.99269642 16.6523175,4.07970969 16.931763,4.2319829 C17.0714857,4.30540034 17.1975101,4.40600943 17.3262742,4.49846102 C20.6193472,6.87501079 23.9096805,9.25427973 27.2027535,11.6281103 C27.4904179,11.8320477 27.7205495,12.1121216 27.8547929,12.4357022 C28.1178004,13.0502334 28.0164329,13.7952844 27.6082233,14.3228024 C27.3698728,14.6463829 27.0164565,14.8856694 26.6274246,14.994436 C26.4849622,15.0379426 26.3370205,15.0515384 26.1918184,15.0705726 C26.1934482,16.8871396 26.1936237,20.2490957 26.1923448,25.1564412 C26.1909124,26.1742901 25.3659346,26.9989547 24.3480852,27 L7.65247106,26.9977728 C6.63463548,26.9964366 5.8098985,26.1715578 5.80873782,25.153722 C5.80873782,20.2463766 5.80873782,16.8844204 5.80873782,15.0678534 C5.44162319,15.0461001 5.07998789,14.9237377 4.7813648,14.7062045 C4.31562237,14.366309 4.02521827,13.8115994 4.00330097,13.2405749 C3.96494571,12.631482 4.2635688,12.01967 4.75670785,11.6580211 C8.12101202,9.23796474 11.4743575,6.81518917 14.8304427,4.3924136 C15.1674211,4.13681214 15.5893289,3.98725809 16.0139764,4.00085392 Z M14.9617515,12.8835109 C14.7092085,13.4126063 14.4610576,13.9417016 14.2085146,14.470797 C14.1689861,14.4882158 14.1250656,14.4903931 14.0855371,14.4969252 C13.5738631,14.5731323 13.0621891,14.6515168 12.5527111,14.727724 C12.4121654,14.7494975 12.2760118,14.8017538 12.1574264,14.877961 C11.8499828,15.0695675 11.6655166,15.4353618 11.6918689,15.7946241 C11.7072411,16.038487 11.8126503,16.2758179 11.9883324,16.4478283 C12.3396966,16.8070906 12.6954528,17.1641755 13.0468169,17.5234378 C13.0995215,17.5800489 13.1632063,17.6279505 13.2027347,17.6932709 C13.1126977,18.2550265 13.0182686,18.8167821 12.9260355,19.3785377 C12.8952911,19.5418387 12.8908991,19.7138491 12.9348196,19.8749728 C13.0050924,20.1406092 13.1895586,20.3757627 13.4333175,20.5064035 C13.6617041,20.6305123 13.9384034,20.6609952 14.1909464,20.5956748 C14.3710205,20.5499505 14.5247423,20.4410831 14.6894443,20.3561666 C15.0715528,20.1471412 15.4558573,19.9359385 15.8379658,19.7269132 C15.8577301,19.7182038 15.8818863,19.6964304 15.9038466,19.7116718 C16.3891683,19.9773081 16.87449,20.2429445 17.3576157,20.5085809 C17.6716474,20.6784139 18.0757162,20.6675272 18.3787678,20.478098 C18.6664472,20.3060876 18.8575014,19.9838402 18.8640895,19.6485287 C18.8706776,19.480873 18.8267571,19.3153946 18.8026008,19.1499162 C18.7235439,18.6600131 18.6378988,18.1701099 18.563234,17.6780295 C18.9277743,17.3100578 19.2901185,16.9399088 19.6546588,16.5697597 C19.751284,16.4696018 19.8566932,16.3759758 19.926966,16.2562217 C20.0697077,16.0276003 20.1136282,15.7423678 20.0477475,15.4832635 C19.9752786,15.1827896 19.755676,14.9215079 19.4701927,14.7973991 C19.3120788,14.7255466 19.1363967,14.7124826 18.9651067,14.6863544 C18.4995492,14.6145019 18.0317957,14.5470042 17.5640422,14.4729744 C17.5113376,14.3945899 17.4805932,14.3031413 17.4366727,14.2204021 C17.2544025,13.837189 17.0721324,13.4517985 16.8898622,13.0685854 C16.8261775,12.9357672 16.7712768,12.796417 16.6724557,12.683195 C16.450657,12.4132039 16.0795287,12.2716763 15.7325566,12.32611 C15.4031527,12.369657 15.1044932,12.5852143 14.9617515,12.8835109 Z" id="形状" stroke="#A8B0BC" stroke-width="1.6" stroke-linejoin="round" fill-rule="nonzero"></path>
        </g>
    </g>
</svg>