<?xml version="1.0" encoding="UTF-8"?>
<svg width="36px" height="36px" viewBox="0 0 36 36" version="1.1" xmlns="http://www.w3.org/2000/svg" xmlns:xlink="http://www.w3.org/1999/xlink">
    <title>@图标库:6/44X44图标:3/搜索@2x</title>
    <g id="@图标库:6/44X44图标:3/搜索" stroke="none" stroke-width="1" fill="none" fill-rule="evenodd">
        <g id="icon">
            <rect id="矩形" stroke="#979797" stroke-width="0.741106719" fill="#D8D8D8" opacity="0" x="0.37055336" y="0.37055336" width="34.8320158" height="34.8320158"></rect>
            <path d="M15.1059625,1.48221344 C22.1895693,1.48221344 28.1620553,7.62060187 28.1620553,15.4844 C28.1620553,18.5795864 27.0825583,21.4683648 25.297122,23.7668007 L27.0417702,25.5120413 C27.7971551,25.3051624 28.6387421,25.4967308 29.234457,26.0867138 L33.7671039,30.575748 C34.6379486,31.4382135 34.6447413,32.843339 33.7822758,33.7141837 L33.7667925,33.7296639 L33.7667925,33.7296639 C32.8846112,34.603012 31.4636151,34.6028717 30.5816062,33.7293494 L26.0489592,29.2403152 C25.4435676,28.6407486 25.2557479,27.7789298 25.4872491,27.0166674 L23.8393976,25.36656 C21.5073171,27.5523704 18.4288944,28.9031621 15.1059625,28.9031621 C7.45469948,28.9031621 1.48221344,22.7647736 1.48221344,15.4844 C1.48221344,7.62060187 7.45469948,1.48221344 15.1059625,1.48221344 Z M14.8221344,3.7055336 C8.6826053,3.7055336 3.7055336,8.84850769 3.7055336,15.5031514 C3.7055336,21.5368678 8.6826053,26.6798419 14.8221344,26.6798419 C17.9925349,26.6798419 20.8529544,25.3084156 22.8781164,23.1510997 C22.9123328,23.0976018 22.9539484,23.0475966 23.0007582,23.0008214 L23.0014703,23.0001106 L23.0749051,22.9360493 C24.8549122,20.9404604 25.9387352,18.3187913 25.9387352,15.5031514 C25.9387352,8.84850769 20.9616635,3.7055336 14.8221344,3.7055336 Z" id="搜索" fill="#C3D1E5"></path>
        </g>
    </g>
</svg>