<?xml version="1.0" encoding="UTF-8"?>
<svg width="60px" height="60px" viewBox="0 0 60 60" version="1.1" xmlns="http://www.w3.org/2000/svg" xmlns:xlink="http://www.w3.org/1999/xlink">
    <title>编组 24</title>
    <g id="我的报告" stroke="none" stroke-width="1" fill="none" fill-rule="evenodd">
        <g id="我的-报告入口" transform="translate(-391.000000, -527.000000)">
            <g id="编组-28" transform="translate(32.000000, 499.000000)">
                <g id="编组-25备份" transform="translate(343.000000, 5.000000)">
                    <g id="编组-27" transform="translate(16.000000, 20.500000)">
                        <g id="编组-24" transform="translate(0.000000, 2.500000)">
                            <rect id="矩形" stroke="#979797" fill="#D8D8D8" opacity="0" x="0.5" y="0.5" width="59" height="59" rx="8"></rect>
                            <g id="编组" transform="translate(8.500000, 8.500000)">
                                <polygon id="路径" stroke="#FF761C" stroke-width="3.5" stroke-linejoin="round" fill-rule="nonzero" points="5.79545455 14.8943182 5.79545455 5.79545455 14.8943182 5.79545455 21.25 0 27.6056818 5.79545455 36.7045455 5.79545455 36.7045455 14.8943182 42.5 21.25 36.7045455 27.6056818 36.7045455 36.7045455 27.6056818 36.7045455 21.25 42.5 14.8943182 36.7045455 5.79545455 36.7045455 5.79545455 27.6056818 0 21.25"></polygon>
                                <g id="编组-26" transform="translate(21.250000, 20.407044) rotate(-315.000000) translate(-21.250000, -20.407044) translate(15.030488, 14.187532)" fill="#FF761C">
                                    <rect id="矩形" x="0" y="8.81097561" width="12.4390244" height="3.62804878" rx="1.81402439"></rect>
                                    <path d="M6.2195122,4.4054878 L15.0304878,4.4054878 C16.0323458,4.4054878 16.8445122,5.21765419 16.8445122,6.2195122 C16.8445122,7.2213702 16.0323458,8.03353659 15.0304878,8.03353659 L6.2195122,8.03353659 C5.21765419,8.03353659 4.4054878,7.2213702 4.4054878,6.2195122 C4.4054878,5.21765419 5.21765419,4.4054878 6.2195122,4.4054878 Z" id="矩形备份-9" transform="translate(10.625000, 6.219512) rotate(-270.000000) translate(-10.625000, -6.219512) "></path>
                                </g>
                            </g>
                        </g>
                    </g>
                </g>
            </g>
        </g>
    </g>
</svg>